<?xml version="1.0" standalone="no"?>
<!DOCTYPE svg PUBLIC "-//W3C//DTD SVG 20010904//EN"
 "http://www.w3.org/TR/2001/REC-SVG-20010904/DTD/svg10.dtd">
<svg version="1.0" xmlns="http://www.w3.org/2000/svg"
 width="51.000000pt" height="48.000000pt" viewBox="0 0 51.000000 48.000000"
 preserveAspectRatio="xMidYMid meet">

<g transform="translate(0.000000,48.000000) scale(0.100000,-0.100000)"
fill="#000000" stroke="none">
<path d="M155 441 c-76 -34 -135 -122 -135 -201 0 -15 -6 -32 -12 -40 -11 -12
-10 -12 5 -1 10 8 17 27 17 45 0 51 49 137 97 170 50 35 137 46 198 26 78 -26
144 -113 145 -190 0 -20 5 -41 11 -47 18 -18 -7 -51 -49 -63 -48 -13 -162 -13
-162 0 0 6 32 10 76 10 41 0 73 3 71 7 -8 14 12 53 28 53 38 0 4 111 -50 165
-64 65 -145 81 -225 44 -54 -24 -77 -44 -98 -84 -22 -42 -32 -125 -16 -125 8
0 18 -9 24 -20 6 -11 16 -18 23 -15 7 4 3 -1 -7 -9 -18 -15 -15 -16 52 -16 41
0 72 -4 72 -10 0 -13 -105 -13 -152 0 -21 6 -42 18 -47 28 -6 9 -11 13 -11 9
0 -5 21 -33 46 -63 49 -57 100 -94 130 -94 10 0 -5 12 -34 26 -45 23 -108 84
-85 84 4 0 14 -9 20 -19 24 -39 99 -73 161 -74 64 0 108 18 161 67 23 21 30
25 23 11 -15 -30 -42 -51 -92 -74 -42 -19 -43 -21 -16 -21 23 0 43 15 97 70
71 73 89 104 70 123 -6 6 -11 27 -11 47 0 23 -12 56 -33 90 -58 98 -188 139
-292 91z m87 -119 l1 -37 4 35 c6 52 19 57 27 9 5 -30 2 -48 -9 -66 -13 -19
-14 -39 -9 -98 7 -83 1 -114 -19 -96 -10 8 -11 28 -4 88 7 64 6 82 -7 105 -12
19 -15 39 -10 67 8 49 23 44 26 -7z m115 34 c0 -8 -3 -14 -6 -13 -3 1 -17 -5
-31 -12 -22 -11 -21 -9 5 13 17 14 30 25 31 26 0 0 1 -6 1 -14z m3 -111 c0
-47 -3 -85 -7 -85 -5 0 -7 38 -5 85 2 47 5 85 8 85 2 0 4 -38 4 -85z m-40 -15
c0 -40 -4 -70 -10 -70 -6 0 -10 30 -10 70 0 40 4 70 10 70 6 0 10 -30 10 -70z
m-128 43 c26 -23 24 -78 -4 -97 -32 -23 -38 -20 -38 18 0 34 0 34 -35 26 -42
-9 -46 4 -14 44 24 30 63 34 91 9z m218 -17 c0 -47 -11 -96 -21 -96 -5 0 -9
29 -9 65 0 51 3 65 15 65 10 0 15 -10 15 -34z m-120 -56 c0 -22 -4 -40 -10
-40 -5 0 -10 18 -10 40 0 22 5 40 10 40 6 0 10 -18 10 -40z"/>
</g>
</svg>
